<?xml version="1.0" encoding="UTF-8"?>
<svg id="Calque_1" xmlns="http://www.w3.org/2000/svg" version="1.1" viewBox="0 0 1366 768">
  <!-- Generator: Adobe Illustrator 29.4.0, SVG Export Plug-In . SVG Version: 2.1.0 Build 152)  -->
  <defs>
    <style>
      .st0 {
        fill: #bfa055;
      }
    </style>
  </defs>
  <path class="st0" d="M929.71,384c0,136.25-110.45,246.71-246.71,246.71s-246.71-110.45-246.71-246.71,110.45-246.71,246.71-246.71,246.71,110.45,246.71,246.71ZM617.71,233.41c-47.36,3.24-78.5,28.15-85.33,74.17-.75,5.09-.61,10.25-.31,15.38,4.87,83.12-32.41,204.8,87.33,211.92,44.76,2.66,93.01-1.1,137.94-1.1,45.32-5.69,77.27-39.78,77.53-80.27-7.94-83.86,35.64-213.57-89.2-220.44-37.74-2.08-90.37-2.24-127.96.33Z"/>
  <g>
    <path class="st0" d="M653.21,261.03c30.5-.71,65.18-1.37,95.41.66,34.17,2.29,56.18,21.95,58.68,56.71,3.07,42.71-2.36,89.07-.05,132.17-3.61,34.34-24.3,53.47-58.62,55.78-28.16,1.89-61.42,1.47-89.83.99-47.38-.8-94.9,1.96-100.1-58.68,2.39-42.49-3.02-88.15,0-130.26,4.15-57.82,49.77-56.33,94.51-57.36ZM779.56,304.29c0-8.78-7.12-15.89-15.89-15.89s-15.89,7.12-15.89,15.89,7.12,15.89,15.89,15.89,15.89-7.12,15.89-15.89ZM763.08,384.02c0-44.22-35.85-80.07-80.07-80.07s-80.07,35.85-80.07,80.07,35.85,80.07,80.07,80.07,80.07-35.85,80.07-80.07Z"/>
    <circle class="st0" cx="682.99" cy="383.99" r="51.94"/>
  </g>
</svg>