<?xml version="1.0" encoding="UTF-8"?>
<svg id="Calque_1" xmlns="http://www.w3.org/2000/svg" version="1.1" viewBox="0 0 1366 768">
  <!-- Generator: Adobe Illustrator 29.4.0, SVG Export Plug-In . SVG Version: 2.1.0 Build 152)  -->
  <defs>
    <style>
      .st0 {
        fill: none;
        stroke: #fff;
        stroke-miterlimit: 10;
        stroke-width: .5px;
      }

      .st1 {
        fill: #fff;
      }

      .st2 {
        fill: #bfa055;
      }
    </style>
  </defs>
  <path class="st2" d="M519.99,205.61c-152.64,145.88-59.33,408.34,149.87,424.8,8.39.66,17.54-.49,26.02,0v-191.68h-53v-61.65h51.55c.1,0,1.45-1.34,1.45-1.44v-57.79c0-11.32,9.17-32.52,16.4-41.4,22.29-27.35,52.04-27.08,84.31-25.56,8.49.4,17.04.47,25.53.97v54.9h-33.25c-3.15,0-11.5,1.53-14.73,2.62-5.14,1.73-9.02,4.8-11.6,9.59-.51.96-3.06,7.13-3.06,7.54v50.57h60.71l-7.71,60.68h-53v182.28c19.45-5.62,41.51-14.28,63.4-27.64,30.86-19.59,57.21-46.01,76.84-76.84,15.32-25.12,27.66-55.74,35.02-93.06.85-5.87,1.67-11.74,3.01-17.5v-40.45c-14.22-205.57-267.69-302.38-417.76-158.96Z"/>
  <path class="st1" d="M759.48,437.77h53l7.71-60.68h-60.71v-50.57c0-.41,2.55-6.58,3.06-7.54,2.58-4.79,6.46-7.86,11.6-9.59,3.23-1.09,11.58-2.62,14.73-2.62h33.25v-54.9c-8.48-.51-17.03-.57-25.53-.97-32.27-1.53-62.02-1.8-84.31,25.56-7.23,8.87-16.4,30.07-16.4,41.4v57.79c0,.1-1.34,1.44-1.45,1.44h-51.55v61.65h53v191.68h.09c1.69,0,28.32-.2,63.5-10.36v-182.28Z"/>
  <path class="st0" d="M695.97,630.41h-.09.09Z"/>
  <path class="st2" d="M822.88,592.41c-21.9,13.36-43.95,22.02-63.4,27.64v.73c22.57-6.32,43.89-15.98,63.4-28.37Z"/>
  <path class="st2" d="M934.74,422.52c-7.35,37.32-19.7,67.94-35.02,93.06,15.43-24.24,26.71-51.19,32.76-79.7.94-4.42,1.61-8.89,2.26-13.36Z"/>
</svg>