<!DOCTYPE svg PUBLIC "-//W3C//DTD SVG 1.1//EN" "http://www.w3.org/Graphics/SVG/1.1/DTD/svg11.dtd">
<!-- Uploaded to: SVG Repo, www.svgrepo.com, Transformed by: SVG Repo Mixer Tools -->
<svg height="800px" width="800px" version="1.1" id="Layer_1" xmlns="http://www.w3.org/2000/svg" xmlns:xlink="http://www.w3.org/1999/xlink" viewBox="0 0 512 512" xml:space="preserve" fill="#000000">
<g id="SVGRepo_bgCarrier" stroke-width="0"/>
<g id="SVGRepo_tracerCarrier" stroke-linecap="round" stroke-linejoin="round"/>
<g id="SVGRepo_iconCarrier"> <polygon style="fill:#C1A156;" points="256,380.936 117.968,490.016 170.696,313.512 31.552,203.568 203.544,203.568 256,27.952 308.456,203.568 480.448,203.568 341.304,313.512 394.032,490.016 "/> <path style="fill:&lt;svg height=" 200px"="" width="200px" version="1.1" id="Layer_1" xmlns="http://www.w3.org/2000/svg" xmlns:xlink="http://www.w3.org/1999/xlink" viewBox="0 0 512 512" xml:space="preserve" fill="#000000">
<g id="SVGRepo_bgCarrier" stroke-width="0"/>
<g id="SVGRepo_tracerCarrier" stroke-linecap="round" stroke-linejoin="round"/>
<g id="SVGRepo_iconCarrier"> <polygon style="fill:#C1A156;" points="256,380.936 117.968,490.016 170.696,313.512 31.552,203.568 203.544,203.568 256,27.952 308.456,203.568 480.448,203.568 341.304,313.512 394.032,490.016 "/> <path style="fill:#C1A156;" d="M256,55.904l43.088,144.248l3.408,11.424h154.92l-116.8,92.312l-8.52,6.728l3.104,10.4L379.112,468 L265.92,378.576l-9.92-7.832l-9.92,7.84L132.888,468L176.8,321.016l3.104-10.4l-8.52-6.728l-116.8-92.32h154.92l3.408-11.424 L256,55.904 M256,0l-58.4,195.568H8.536l152.936,120.864L103.056,512L256,391.136L408.944,512l-58.4-195.568l152.92-120.864H314.4 L256,0z"/> </g>;" d="M256,55.904l43.088,144.248l3.408,11.424h154.92l-116.8,92.312l-8.52,6.728l3.104,10.4L379.112,468 L265.92,378.576l-9.92-7.832l-9.92,7.84L132.888,468L176.8,321.016l3.104-10.4l-8.52-6.728l-116.8-92.32h154.92l3.408-11.424 L256,55.904 M256,0l-58.4,195.568H8.536l152.936,120.864L103.056,512L256,391.136L408.944,512l-58.4-195.568l152.92-120.864H314.4 L256,0z"&gt;</path> </g>
</svg>