<?xml version="1.0" encoding="UTF-8"?>
<svg id="Calque_1" xmlns="http://www.w3.org/2000/svg" version="1.1" viewBox="0 0 1366 768">
  <!-- Generator: Adobe Illustrator 29.4.0, SVG Export Plug-In . SVG Version: 2.1.0 Build 152)  -->
  <defs>
    <style>
      .st0 {
        fill: #c0a156;
      }
    </style>
  </defs>
  <path class="st0" d="M684.11,136.82l64.22,181.86c7.09,5.02,49.85,2.54,61.41,2.79,20.8.45,42.17,1.87,62.97,2.35,23.52.53,46.99-.26,70.43,1.09l-154.09,120.19,54.97,185.57c-1.67.22-3.91-1.64-5.31-2.57-48.64-32.09-96.64-71.82-145.88-101.87-3.22-1.97-6.31-4.6-10.37-4.33l-159.95,109.3,54.44-186.09-154.09-120.19c24.56-1.44,49.17-.55,73.81-1.09,20.8-.46,42.17-1.89,62.97-2.35,11.19-.24,51,2.2,58.03-2.79l66.45-181.86Z"/>
</svg>